<svg xmlns="http://www.w3.org/2000/svg" xmlns:xlink="http://www.w3.org/1999/xlink" width="650" zoomAndPan="magnify" viewBox="0 0 487.5 112.499997" height="150" preserveAspectRatio="xMidYMid meet" version="1.0"><defs><g/><clipPath id="ca5d8eb6ec"><path d="M 15.554688 21.824219 L 84.320312 21.824219 L 84.320312 90.589844 L 15.554688 90.589844 Z M 15.554688 21.824219 " clip-rule="nonzero"/></clipPath></defs><g clip-path="url(#ca5d8eb6ec)"><path fill="#9a06ff" d="M 84.320312 56.207031 C 84.320312 57.332031 84.261719 58.457031 84.152344 59.578125 C 84.042969 60.699219 83.878906 61.8125 83.65625 62.914062 C 83.4375 64.019531 83.164062 65.109375 82.839844 66.1875 C 82.511719 67.265625 82.132812 68.324219 81.703125 69.367188 C 81.269531 70.40625 80.789062 71.421875 80.257812 72.414062 C 79.726562 73.410156 79.148438 74.375 78.523438 75.308594 C 77.898438 76.246094 77.226562 77.148438 76.515625 78.019531 C 75.800781 78.890625 75.042969 79.722656 74.25 80.519531 C 73.453125 81.316406 72.617188 82.070312 71.75 82.785156 C 70.878906 83.5 69.972656 84.171875 69.039062 84.796875 C 68.101562 85.421875 67.136719 86 66.144531 86.53125 C 65.152344 87.0625 64.132812 87.542969 63.09375 87.972656 C 62.054688 88.402344 60.996094 88.78125 59.917969 89.109375 C 58.839844 89.4375 57.75 89.710938 56.644531 89.929688 C 55.539062 90.148438 54.425781 90.3125 53.304688 90.425781 C 52.183594 90.535156 51.0625 90.589844 49.9375 90.589844 C 48.808594 90.589844 47.6875 90.535156 46.566406 90.425781 C 45.445312 90.3125 44.332031 90.148438 43.226562 89.929688 C 42.125 89.710938 41.03125 89.4375 39.957031 89.109375 C 38.878906 88.78125 37.820312 88.402344 36.777344 87.972656 C 35.738281 87.542969 34.722656 87.0625 33.726562 86.53125 C 32.734375 86 31.769531 85.421875 30.835938 84.796875 C 29.898438 84.171875 28.996094 83.5 28.125 82.785156 C 27.253906 82.070312 26.421875 81.316406 25.625 80.519531 C 24.828125 79.722656 24.074219 78.890625 23.359375 78.019531 C 22.644531 77.148438 21.972656 76.246094 21.347656 75.308594 C 20.722656 74.375 20.144531 73.410156 19.613281 72.414062 C 19.082031 71.421875 18.601562 70.40625 18.171875 69.367188 C 17.738281 68.324219 17.359375 67.265625 17.035156 66.1875 C 16.707031 65.109375 16.433594 64.019531 16.214844 62.914062 C 15.996094 61.8125 15.828125 60.699219 15.71875 59.578125 C 15.609375 58.457031 15.554688 57.332031 15.554688 56.207031 C 15.554688 55.082031 15.609375 53.957031 15.71875 52.835938 C 15.828125 51.71875 15.996094 50.605469 16.214844 49.5 C 16.433594 48.394531 16.707031 47.304688 17.035156 46.226562 C 17.359375 45.148438 17.738281 44.089844 18.171875 43.050781 C 18.601562 42.011719 19.082031 40.992188 19.613281 40 C 20.144531 39.007812 20.722656 38.042969 21.347656 37.105469 C 21.972656 36.167969 22.644531 35.265625 23.359375 34.394531 C 24.074219 33.523438 24.828125 32.691406 25.625 31.894531 C 26.421875 31.097656 27.253906 30.34375 28.125 29.628906 C 28.996094 28.914062 29.898438 28.246094 30.835938 27.621094 C 31.769531 26.992188 32.734375 26.414062 33.726562 25.886719 C 34.722656 25.355469 35.738281 24.875 36.777344 24.441406 C 37.820312 24.011719 38.878906 23.632812 39.957031 23.304688 C 41.03125 22.980469 42.125 22.707031 43.226562 22.484375 C 44.332031 22.265625 45.445312 22.101562 46.566406 21.992188 C 47.6875 21.878906 48.808594 21.824219 49.9375 21.824219 C 51.0625 21.824219 52.183594 21.878906 53.304688 21.992188 C 54.425781 22.101562 55.539062 22.265625 56.644531 22.484375 C 57.75 22.707031 58.839844 22.980469 59.917969 23.304688 C 60.996094 23.632812 62.054688 24.011719 63.09375 24.441406 C 64.132812 24.875 65.152344 25.355469 66.144531 25.886719 C 67.136719 26.414062 68.101562 26.992188 69.039062 27.621094 C 69.972656 28.246094 70.878906 28.914062 71.75 29.628906 C 72.617188 30.34375 73.453125 31.097656 74.25 31.894531 C 75.042969 32.691406 75.800781 33.523438 76.515625 34.394531 C 77.226562 35.265625 77.898438 36.167969 78.523438 37.105469 C 79.148438 38.042969 79.726562 39.007812 80.257812 40 C 80.789062 40.992188 81.269531 42.011719 81.703125 43.050781 C 82.132812 44.089844 82.511719 45.148438 82.839844 46.226562 C 83.164062 47.304688 83.4375 48.394531 83.65625 49.5 C 83.878906 50.605469 84.042969 51.71875 84.152344 52.835938 C 84.261719 53.957031 84.320312 55.082031 84.320312 56.207031 Z M 84.320312 56.207031 " fill-opacity="1" fill-rule="nonzero"/></g><path fill="#ffffff" d="M 41.410156 79.917969 L 22.660156 61.167969 L 30.128906 53.699219 L 41.410156 64.976562 L 69.738281 36.644531 L 77.210938 44.113281 Z M 41.410156 79.917969 " fill-opacity="1" fill-rule="nonzero"/><g fill="#ffffff" fill-opacity="1"><g transform="translate(93.563445, 72.976873)"><g><path d="M 22.625 -12.78125 C 22.625 -11.582031 22.53125 -10.601562 22.34375 -9.84375 L 7.859375 -9.84375 C 8.171875 -7.976562 8.929688 -6.601562 10.140625 -5.71875 C 11.359375 -4.84375 12.773438 -4.40625 14.390625 -4.40625 C 16.054688 -4.40625 17.789062 -4.925781 19.59375 -5.96875 L 21.71875 -2.03125 C 20.550781 -1.207031 19.25 -0.566406 17.8125 -0.109375 C 16.382812 0.335938 14.957031 0.5625 13.53125 0.5625 C 11.320312 0.5625 9.328125 0.078125 7.546875 -0.890625 C 5.765625 -1.867188 4.359375 -3.289062 3.328125 -5.15625 C 2.304688 -7.019531 1.796875 -9.195312 1.796875 -11.6875 C 1.796875 -14.144531 2.304688 -16.304688 3.328125 -18.171875 C 4.359375 -20.035156 5.707031 -21.472656 7.375 -22.484375 C 9.050781 -23.492188 10.835938 -24 12.734375 -24 C 15.921875 -24 18.363281 -22.960938 20.0625 -20.890625 C 21.769531 -18.828125 22.625 -16.125 22.625 -12.78125 Z M 17.078125 -14.15625 C 17.078125 -15.664062 16.726562 -16.851562 16.03125 -17.71875 C 15.34375 -18.59375 14.289062 -19.03125 12.875 -19.03125 C 11.707031 -19.03125 10.671875 -18.625 9.765625 -17.8125 C 8.867188 -17.007812 8.265625 -15.789062 7.953125 -14.15625 Z M 17.078125 -14.15625 "/></g></g></g><g fill="#ffffff" fill-opacity="1"><g transform="translate(117.891813, 72.976873)"><g><path d="M 7.953125 -12.203125 L 1.140625 -23.421875 L 8.046875 -23.421875 L 10.3125 -19.40625 C 10.882812 -18.238281 11.566406 -16.910156 12.359375 -15.421875 L 12.546875 -15.421875 L 13.484375 -17.75 L 14.203125 -19.40625 L 16 -23.421875 L 22.71875 -23.421875 L 15.90625 -11.453125 L 23.140625 0 L 16.234375 0 L 13.71875 -4.125 L 12.78125 -5.875 L 11.5 -8.234375 L 11.3125 -8.234375 C 11 -7.628906 10.367188 -6.257812 9.421875 -4.125 L 7.390625 0 L 0.65625 0 Z M 7.953125 -12.203125 "/></g></g></g><g fill="#ffffff" fill-opacity="1"><g transform="translate(141.699531, 72.976873)"><g><path d="M 3.21875 -23.421875 L 8.46875 -23.421875 L 8.9375 -21.0625 L 9.140625 -21.0625 C 10.109375 -21.945312 11.1875 -22.65625 12.375 -23.1875 C 13.5625 -23.726562 14.738281 -24 15.90625 -24 C 18.738281 -24 20.972656 -22.925781 22.609375 -20.78125 C 24.253906 -18.632812 25.078125 -15.726562 25.078125 -12.0625 C 25.078125 -9.507812 24.617188 -7.269531 23.703125 -5.34375 C 22.796875 -3.425781 21.582031 -1.960938 20.0625 -0.953125 C 18.550781 0.0546875 16.925781 0.5625 15.1875 0.5625 C 13.195312 0.5625 11.289062 -0.269531 9.46875 -1.9375 L 9.65625 1.84375 L 9.65625 8.890625 L 3.21875 8.890625 Z M 13.71875 -4.734375 C 15.113281 -4.734375 16.25 -5.347656 17.125 -6.578125 C 18.007812 -7.804688 18.453125 -9.617188 18.453125 -12.015625 C 18.453125 -16.460938 16.988281 -18.6875 14.0625 -18.6875 C 12.601562 -18.6875 11.132812 -17.929688 9.65625 -16.421875 L 9.65625 -6.390625 C 10.914062 -5.285156 12.269531 -4.734375 13.71875 -4.734375 Z M 13.71875 -4.734375 "/></g></g></g><g fill="#ffffff" fill-opacity="1"><g transform="translate(168.678464, 72.976873)"><g><path d="M 3.21875 -23.421875 L 8.46875 -23.421875 L 8.9375 -19.3125 L 9.140625 -19.3125 C 9.953125 -20.820312 10.953125 -21.976562 12.140625 -22.78125 C 13.328125 -23.59375 14.535156 -24 15.765625 -24 C 16.867188 -24 17.78125 -23.835938 18.5 -23.515625 L 17.421875 -17.9375 C 17.328125 -17.96875 17.039062 -18.035156 16.5625 -18.140625 C 16.09375 -18.253906 15.554688 -18.3125 14.953125 -18.3125 C 13.941406 -18.3125 12.960938 -17.945312 12.015625 -17.21875 C 11.066406 -16.5 10.28125 -15.363281 9.65625 -13.8125 L 9.65625 0 L 3.21875 0 Z M 3.21875 -23.421875 "/></g></g></g><g fill="#ffffff" fill-opacity="1"><g transform="translate(187.137729, 72.976873)"><g><path d="M 22.625 -12.78125 C 22.625 -11.582031 22.53125 -10.601562 22.34375 -9.84375 L 7.859375 -9.84375 C 8.171875 -7.976562 8.929688 -6.601562 10.140625 -5.71875 C 11.359375 -4.84375 12.773438 -4.40625 14.390625 -4.40625 C 16.054688 -4.40625 17.789062 -4.925781 19.59375 -5.96875 L 21.71875 -2.03125 C 20.550781 -1.207031 19.25 -0.566406 17.8125 -0.109375 C 16.382812 0.335938 14.957031 0.5625 13.53125 0.5625 C 11.320312 0.5625 9.328125 0.078125 7.546875 -0.890625 C 5.765625 -1.867188 4.359375 -3.289062 3.328125 -5.15625 C 2.304688 -7.019531 1.796875 -9.195312 1.796875 -11.6875 C 1.796875 -14.144531 2.304688 -16.304688 3.328125 -18.171875 C 4.359375 -20.035156 5.707031 -21.472656 7.375 -22.484375 C 9.050781 -23.492188 10.835938 -24 12.734375 -24 C 15.921875 -24 18.363281 -22.960938 20.0625 -20.890625 C 21.769531 -18.828125 22.625 -16.125 22.625 -12.78125 Z M 17.078125 -14.15625 C 17.078125 -15.664062 16.726562 -16.851562 16.03125 -17.71875 C 15.34375 -18.59375 14.289062 -19.03125 12.875 -19.03125 C 11.707031 -19.03125 10.671875 -18.625 9.765625 -17.8125 C 8.867188 -17.007812 8.265625 -15.789062 7.953125 -14.15625 Z M 17.078125 -14.15625 "/></g></g></g><g fill="#ffffff" fill-opacity="1"><g transform="translate(211.466096, 72.976873)"><g><path d="M 9.984375 0.5625 C 8.472656 0.5625 6.90625 0.265625 5.28125 -0.328125 C 3.65625 -0.929688 2.242188 -1.722656 1.046875 -2.703125 L 3.96875 -6.765625 C 5.070312 -5.910156 6.117188 -5.28125 7.109375 -4.875 C 8.109375 -4.46875 9.128906 -4.265625 10.171875 -4.265625 C 11.242188 -4.265625 12.046875 -4.457031 12.578125 -4.84375 C 13.117188 -5.238281 13.390625 -5.800781 13.390625 -6.53125 C 13.390625 -7.03125 13.175781 -7.46875 12.75 -7.84375 C 12.320312 -8.226562 11.710938 -8.585938 10.921875 -8.921875 C 10.140625 -9.253906 9.351562 -9.578125 8.5625 -9.890625 C 6.707031 -10.617188 5.1875 -11.507812 4 -12.5625 C 2.8125 -13.625 2.21875 -15.019531 2.21875 -16.75 C 2.21875 -18.894531 3.019531 -20.640625 4.625 -21.984375 C 6.238281 -23.328125 8.375 -24 11.03125 -24 C 13.925781 -24 16.625 -23.019531 19.125 -21.0625 L 16.234375 -17.1875 C 14.367188 -18.507812 12.695312 -19.171875 11.21875 -19.171875 C 10.238281 -19.171875 9.503906 -18.976562 9.015625 -18.59375 C 8.523438 -18.21875 8.28125 -17.710938 8.28125 -17.078125 C 8.28125 -16.453125 8.59375 -15.941406 9.21875 -15.546875 C 9.851562 -15.148438 10.582031 -14.8125 11.40625 -14.53125 C 12.226562 -14.25 12.765625 -14.0625 13.015625 -13.96875 C 15.003906 -13.238281 16.570312 -12.359375 17.71875 -11.328125 C 18.875 -10.304688 19.453125 -8.832031 19.453125 -6.90625 C 19.453125 -5.488281 19.082031 -4.21875 18.34375 -3.09375 C 17.601562 -1.976562 16.519531 -1.085938 15.09375 -0.421875 C 13.675781 0.234375 11.972656 0.5625 9.984375 0.5625 Z M 9.984375 0.5625 "/></g></g></g><g fill="#ffffff" fill-opacity="1"><g transform="translate(232.244601, 72.976873)"><g><path d="M 9.984375 0.5625 C 8.472656 0.5625 6.90625 0.265625 5.28125 -0.328125 C 3.65625 -0.929688 2.242188 -1.722656 1.046875 -2.703125 L 3.96875 -6.765625 C 5.070312 -5.910156 6.117188 -5.28125 7.109375 -4.875 C 8.109375 -4.46875 9.128906 -4.265625 10.171875 -4.265625 C 11.242188 -4.265625 12.046875 -4.457031 12.578125 -4.84375 C 13.117188 -5.238281 13.390625 -5.800781 13.390625 -6.53125 C 13.390625 -7.03125 13.175781 -7.46875 12.75 -7.84375 C 12.320312 -8.226562 11.710938 -8.585938 10.921875 -8.921875 C 10.140625 -9.253906 9.351562 -9.578125 8.5625 -9.890625 C 6.707031 -10.617188 5.1875 -11.507812 4 -12.5625 C 2.8125 -13.625 2.21875 -15.019531 2.21875 -16.75 C 2.21875 -18.894531 3.019531 -20.640625 4.625 -21.984375 C 6.238281 -23.328125 8.375 -24 11.03125 -24 C 13.925781 -24 16.625 -23.019531 19.125 -21.0625 L 16.234375 -17.1875 C 14.367188 -18.507812 12.695312 -19.171875 11.21875 -19.171875 C 10.238281 -19.171875 9.503906 -18.976562 9.015625 -18.59375 C 8.523438 -18.21875 8.28125 -17.710938 8.28125 -17.078125 C 8.28125 -16.453125 8.59375 -15.941406 9.21875 -15.546875 C 9.851562 -15.148438 10.582031 -14.8125 11.40625 -14.53125 C 12.226562 -14.25 12.765625 -14.0625 13.015625 -13.96875 C 15.003906 -13.238281 16.570312 -12.359375 17.71875 -11.328125 C 18.875 -10.304688 19.453125 -8.832031 19.453125 -6.90625 C 19.453125 -5.488281 19.082031 -4.21875 18.34375 -3.09375 C 17.601562 -1.976562 16.519531 -1.085938 15.09375 -0.421875 C 13.675781 0.234375 11.972656 0.5625 9.984375 0.5625 Z M 9.984375 0.5625 "/></g></g></g><g fill="#ffffff" fill-opacity="1"><g transform="translate(253.023098, 72.976873)"><g><path d="M 2.03125 -14.296875 L 13.53125 -14.296875 L 13.53125 -9.65625 L 2.03125 -9.65625 Z M 2.03125 -14.296875 "/></g></g></g><g fill="#ffffff" fill-opacity="1"><g transform="translate(268.595142, 72.976873)"><g><path d="M 0.5625 -23.421875 L 7.09375 -23.421875 L 10.359375 -12.015625 L 12.203125 -4.875 L 12.40625 -4.875 L 14.296875 -12.015625 L 17.5625 -23.421875 L 23.765625 -23.421875 L 16 0 L 8.5625 0 Z M 0.5625 -23.421875 "/></g></g></g><g fill="#ffffff" fill-opacity="1"><g transform="translate(292.92351, 72.976873)"><g><path d="M 9.046875 0.5625 C 6.960938 0.5625 5.28125 -0.0976562 4 -1.421875 C 2.71875 -2.742188 2.078125 -4.414062 2.078125 -6.4375 C 2.078125 -8.925781 3.132812 -10.859375 5.25 -12.234375 C 7.363281 -13.609375 10.753906 -14.546875 15.421875 -15.046875 C 15.328125 -17.578125 14.035156 -18.84375 11.546875 -18.84375 C 10.566406 -18.84375 9.570312 -18.648438 8.5625 -18.265625 C 7.550781 -17.890625 6.445312 -17.351562 5.25 -16.65625 L 2.9375 -20.921875 C 6.25 -22.972656 9.53125 -24 12.78125 -24 C 15.78125 -24 18.050781 -23.117188 19.59375 -21.359375 C 21.132812 -19.609375 21.90625 -17 21.90625 -13.53125 L 21.90625 0 L 16.609375 0 L 16.140625 -2.46875 L 16 -2.46875 C 13.664062 -0.445312 11.347656 0.5625 9.046875 0.5625 Z M 11.171875 -4.453125 C 11.960938 -4.453125 12.679688 -4.628906 13.328125 -4.984375 C 13.972656 -5.347656 14.671875 -5.894531 15.421875 -6.625 L 15.421875 -11.125 C 12.867188 -10.769531 11.039062 -10.242188 9.9375 -9.546875 C 8.832031 -8.859375 8.28125 -7.992188 8.28125 -6.953125 C 8.28125 -6.140625 8.53125 -5.519531 9.03125 -5.09375 C 9.539062 -4.664062 10.253906 -4.453125 11.171875 -4.453125 Z M 11.171875 -4.453125 "/></g></g></g><g fill="#ffffff" fill-opacity="1"><g transform="translate(317.725186, 72.976873)"><g><path d="M 9.234375 0.5625 C 7.117188 0.5625 5.585938 -0.0820312 4.640625 -1.375 C 3.691406 -2.664062 3.21875 -4.492188 3.21875 -6.859375 L 3.21875 -33.265625 L 9.65625 -33.265625 L 9.65625 -6.578125 C 9.65625 -5.910156 9.78125 -5.425781 10.03125 -5.125 C 10.28125 -4.832031 10.566406 -4.6875 10.890625 -4.6875 C 11.203125 -4.6875 11.484375 -4.71875 11.734375 -4.78125 L 12.546875 0.046875 C 11.628906 0.390625 10.523438 0.5625 9.234375 0.5625 Z M 9.234375 0.5625 "/></g></g></g><g fill="#ffffff" fill-opacity="1"><g transform="translate(331.025329, 72.976873)"><g><path d="M 3.21875 -23.421875 L 9.65625 -23.421875 L 9.65625 0 L 3.21875 0 Z M 6.4375 -27.078125 C 5.363281 -27.078125 4.488281 -27.398438 3.8125 -28.046875 C 3.132812 -28.691406 2.796875 -29.519531 2.796875 -30.53125 C 2.796875 -31.539062 3.132812 -32.367188 3.8125 -33.015625 C 4.488281 -33.660156 5.363281 -33.984375 6.4375 -33.984375 C 7.507812 -33.984375 8.382812 -33.660156 9.0625 -33.015625 C 9.738281 -32.367188 10.078125 -31.539062 10.078125 -30.53125 C 10.078125 -29.519531 9.738281 -28.691406 9.0625 -28.046875 C 8.382812 -27.398438 7.507812 -27.078125 6.4375 -27.078125 Z M 6.4375 -27.078125 "/></g></g></g><g fill="#ffffff" fill-opacity="1"><g transform="translate(343.899493, 72.976873)"><g><path d="M 11.5 0.5625 C 8.5625 0.5625 6.234375 -0.523438 4.515625 -2.703125 C 2.796875 -4.878906 1.9375 -7.875 1.9375 -11.6875 C 1.9375 -14.144531 2.394531 -16.304688 3.3125 -18.171875 C 4.226562 -20.035156 5.4375 -21.472656 6.9375 -22.484375 C 8.4375 -23.492188 10.019531 -24 11.6875 -24 C 12.914062 -24 13.972656 -23.789062 14.859375 -23.375 C 15.742188 -22.96875 16.644531 -22.335938 17.5625 -21.484375 L 17.328125 -25.125 L 17.328125 -33.265625 L 23.8125 -33.265625 L 23.8125 0 L 18.5 0 L 18.03125 -2.40625 L 17.890625 -2.40625 C 17.003906 -1.53125 16 -0.816406 14.875 -0.265625 C 13.757812 0.285156 12.632812 0.5625 11.5 0.5625 Z M 13.15625 -4.734375 C 13.976562 -4.734375 14.71875 -4.914062 15.375 -5.28125 C 16.039062 -5.644531 16.691406 -6.21875 17.328125 -7 L 17.328125 -17.03125 C 16.128906 -18.132812 14.738281 -18.6875 13.15625 -18.6875 C 11.863281 -18.6875 10.773438 -18.085938 9.890625 -16.890625 C 9.003906 -15.691406 8.5625 -13.988281 8.5625 -11.78125 C 8.5625 -9.445312 8.957031 -7.6875 9.75 -6.5 C 10.539062 -5.320312 11.675781 -4.734375 13.15625 -4.734375 Z M 13.15625 -4.734375 "/></g></g></g><g fill="#ffffff" fill-opacity="1"><g transform="translate(370.878426, 72.976873)"><g><path d="M 9.046875 0.5625 C 6.960938 0.5625 5.28125 -0.0976562 4 -1.421875 C 2.71875 -2.742188 2.078125 -4.414062 2.078125 -6.4375 C 2.078125 -8.925781 3.132812 -10.859375 5.25 -12.234375 C 7.363281 -13.609375 10.753906 -14.546875 15.421875 -15.046875 C 15.328125 -17.578125 14.035156 -18.84375 11.546875 -18.84375 C 10.566406 -18.84375 9.570312 -18.648438 8.5625 -18.265625 C 7.550781 -17.890625 6.445312 -17.351562 5.25 -16.65625 L 2.9375 -20.921875 C 6.25 -22.972656 9.53125 -24 12.78125 -24 C 15.78125 -24 18.050781 -23.117188 19.59375 -21.359375 C 21.132812 -19.609375 21.90625 -17 21.90625 -13.53125 L 21.90625 0 L 16.609375 0 L 16.140625 -2.46875 L 16 -2.46875 C 13.664062 -0.445312 11.347656 0.5625 9.046875 0.5625 Z M 11.171875 -4.453125 C 11.960938 -4.453125 12.679688 -4.628906 13.328125 -4.984375 C 13.972656 -5.347656 14.671875 -5.894531 15.421875 -6.625 L 15.421875 -11.125 C 12.867188 -10.769531 11.039062 -10.242188 9.9375 -9.546875 C 8.832031 -8.859375 8.28125 -7.992188 8.28125 -6.953125 C 8.28125 -6.140625 8.53125 -5.519531 9.03125 -5.09375 C 9.539062 -4.664062 10.253906 -4.453125 11.171875 -4.453125 Z M 11.171875 -4.453125 "/></g></g></g><g fill="#ffffff" fill-opacity="1"><g transform="translate(395.680103, 72.976873)"><g><path d="M 11.96875 0.5625 C 9.257812 0.5625 7.273438 -0.21875 6.015625 -1.78125 C 4.753906 -3.34375 4.125 -5.523438 4.125 -8.328125 L 4.125 -18.3125 L 0.859375 -18.3125 L 0.859375 -23.140625 L 4.453125 -23.421875 L 5.203125 -29.671875 L 10.546875 -29.671875 L 10.546875 -23.421875 L 16.28125 -23.421875 L 16.28125 -18.3125 L 10.546875 -18.3125 L 10.546875 -8.375 C 10.546875 -5.820312 11.585938 -4.546875 13.671875 -4.546875 C 14.335938 -4.546875 15.113281 -4.703125 16 -5.015625 L 17.03125 -0.28125 C 15.332031 0.28125 13.644531 0.5625 11.96875 0.5625 Z M 11.96875 0.5625 "/></g></g></g><g fill="#ffffff" fill-opacity="1"><g transform="translate(413.476734, 72.976873)"><g><path d="M 13.109375 0.5625 C 11.085938 0.5625 9.21875 0.078125 7.5 -0.890625 C 5.78125 -1.867188 4.398438 -3.289062 3.359375 -5.15625 C 2.316406 -7.019531 1.796875 -9.195312 1.796875 -11.6875 C 1.796875 -14.207031 2.316406 -16.398438 3.359375 -18.265625 C 4.398438 -20.128906 5.78125 -21.550781 7.5 -22.53125 C 9.21875 -23.507812 11.085938 -24 13.109375 -24 C 15.097656 -24 16.957031 -23.507812 18.6875 -22.53125 C 20.425781 -21.550781 21.816406 -20.117188 22.859375 -18.234375 C 23.898438 -16.359375 24.421875 -14.175781 24.421875 -11.6875 C 24.421875 -9.195312 23.898438 -7.019531 22.859375 -5.15625 C 21.816406 -3.289062 20.425781 -1.867188 18.6875 -0.890625 C 16.957031 0.078125 15.097656 0.5625 13.109375 0.5625 Z M 13.109375 -4.6875 C 14.585938 -4.6875 15.738281 -5.304688 16.5625 -6.546875 C 17.382812 -7.796875 17.796875 -9.507812 17.796875 -11.6875 C 17.796875 -13.863281 17.382812 -15.582031 16.5625 -16.84375 C 15.738281 -18.101562 14.585938 -18.734375 13.109375 -18.734375 C 11.597656 -18.734375 10.4375 -18.101562 9.625 -16.84375 C 8.820312 -15.582031 8.421875 -13.863281 8.421875 -11.6875 C 8.421875 -9.507812 8.820312 -7.796875 9.625 -6.546875 C 10.4375 -5.304688 11.597656 -4.6875 13.109375 -4.6875 Z M 13.109375 -4.6875 "/></g></g></g><g fill="#ffffff" fill-opacity="1"><g transform="translate(439.651041, 72.976873)"><g><path d="M 3.21875 -23.421875 L 8.46875 -23.421875 L 8.9375 -19.3125 L 9.140625 -19.3125 C 9.953125 -20.820312 10.953125 -21.976562 12.140625 -22.78125 C 13.328125 -23.59375 14.535156 -24 15.765625 -24 C 16.867188 -24 17.78125 -23.835938 18.5 -23.515625 L 17.421875 -17.9375 C 17.328125 -17.96875 17.039062 -18.035156 16.5625 -18.140625 C 16.09375 -18.253906 15.554688 -18.3125 14.953125 -18.3125 C 13.941406 -18.3125 12.960938 -17.945312 12.015625 -17.21875 C 11.066406 -16.5 10.28125 -15.363281 9.65625 -13.8125 L 9.65625 0 L 3.21875 0 Z M 3.21875 -23.421875 "/></g></g></g><g fill="#ffffff" fill-opacity="1"><g transform="translate(458.110306, 72.976873)"><g><path d="M 6.90625 0.5625 C 5.769531 0.5625 4.820312 0.171875 4.0625 -0.609375 C 3.3125 -1.398438 2.9375 -2.394531 2.9375 -3.59375 C 2.9375 -4.789062 3.3125 -5.785156 4.0625 -6.578125 C 4.820312 -7.367188 5.769531 -7.765625 6.90625 -7.765625 C 8.039062 -7.765625 8.988281 -7.367188 9.75 -6.578125 C 10.507812 -5.785156 10.890625 -4.789062 10.890625 -3.59375 C 10.890625 -2.394531 10.507812 -1.398438 9.75 -0.609375 C 8.988281 0.171875 8.039062 0.5625 6.90625 0.5625 Z M 6.90625 0.5625 "/></g></g></g></svg>